<svg version="1.1" xmlns="http://www.w3.org/2000/svg" xmlns:xlink="http://www.w3.org/1999/xlink" width="90" height="94"><defs/><g><path fill="rgb(187,237,255)" stroke="none" paint-order="stroke fill markers" fill-rule="evenodd" d=" M 70.43431091308594 73.3975944519043 C 73.63424587249756 69.43729496002197 76.4947919845581 64.88716578483582 79.01499557495117 59.74639630317688 C 81.53519916534424 54.60684275627136 83.51538467407227 49.33556294441223 84.9554328918457 43.93509006500244 C 84.9554328918457 43.93509006500244 65.8739595413208 43.93509006500244 65.8739595413208 43.93509006500244 C 63.793519020080566 51.29595375061035 61.33327770233154 57.31635069847107 58.49335479736328 61.99668622016907 C 58.49335479736328 61.99668622016907 41.45202922821045 45.37516212463379 41.45202922821045 45.37516212463379 C 47.61181163787842 41.81520915031433 52.072861671447754 38.06506371498108 54.83303356170654 34.12432050704956 C 57.59332466125488 30.18479323387146 58.97341060638428 25.834280014038086 58.97341060638428 21.07328748703003 C 58.97341060638428 15.273684024810791 56.74288558959961 10.642897844314575 52.28290843963623 7.182246208190918 C 47.821858406066895 3.7226078510284424 41.87200355529785 1.9919273853302002 34.43143653869629 1.9919273853302002 C 26.630857467651367 1.9919273853302002 20.39966869354248 3.852104902267456 15.739896774291992 7.572459936141968 C 11.079290390014648 11.292713642120361 8.749344825744629 16.193437337875366 8.749344825744629 22.273313760757446 C 8.749344825744629 25.993668794631958 9.429195404052734 29.424428701400757 10.78961181640625 32.56427621841431 C 12.14907455444336 35.70513701438904 14.329889297485352 38.99515247344971 17.330029487609863 42.43513321876526 C 11.449673652648926 45.79516625404358 7.298925399780273 49.40588450431824 4.879096031188965 53.266072034835815 C 2.45831298828125 57.126766204833984 1.2488155364990234 61.797070264816284 1.2488155364990234 67.27698421478271 C 1.2488155364990234 74.91842484474182 4.108407974243164 80.97864365577698 9.829500198364258 85.45845127105713 C 15.549638748168945 89.93906950950623 23.290255546569824 92.17912530899048 33.051350593566895 92.17912530899048 C 42.69144821166992 92.17912530899048 51.33221435546875 89.51906538009644 58.97341060638428 84.19833755493164 C 58.97341060638428 84.19833755493164 65.8739595413208 90.9787950515747 65.8739595413208 90.9787950515747 C 65.8739595413208 90.9787950515747 88.4957103729248 90.9787950515747 88.4957103729248 90.9787950515747 C 88.4957103729248 90.9787950515747 70.43431091308594 73.3975944519043 70.43431091308594 73.3975944519043 Z M 22.52052116394043 58.87639498710632 C 23.86031436920166 56.956130027770996 25.690415382385254 55.11682605743408 28.01094341278076 53.356051206588745 C 28.01094341278076 53.356051206588745 47.93248462677002 73.15754866600037 47.93248462677002 73.15754866600037 C 43.89152812957764 75.59813237190247 39.351799964904785 76.8178162574768 34.31139278411865 76.8178162574768 C 30.27043628692627 76.8178162574768 26.96082878112793 75.79774832725525 24.38066291809082 73.75761246681213 C 21.80037784576416 71.71747660636902 20.510294914245605 68.97767162322998 20.510294914245605 65.5369815826416 C 20.510294914245605 63.016754150390625 21.179774284362793 60.79665994644165 22.52052116394043 58.87639498710632 Z M 39.29183769226074 29.504072427749634 C 37.45136547088623 31.36424994468689 34.81111812591553 33.254319190979004 31.371214866638184 35.17458415031433 C 27.570226669311523 30.93482232093811 25.670745849609375 27.054166555404663 25.670745849609375 23.533528804779053 C 25.670745849609375 21.17360210418701 26.44048023223877 19.353854417800903 27.980902671813965 18.073171138763428 C 29.520371437072754 16.793501138687134 31.630852699279785 16.15300750732422 34.31139278411865 16.15300750732422 C 36.591628074645996 16.15300750732422 38.45176982879639 16.76330542564392 39.891818046569824 17.983191967010498 C 41.33198547363281 19.203787803649902 42.05200958251953 20.873671531677246 42.05200958251953 22.993552446365356 C 42.05200958251953 25.47426199913025 41.13135623931885 27.643894910812378 39.29183769226074 29.504072427749634 Z"/></g></svg>